<svg version="1.1" viewBox="0.0 0.0 115.8477690288714 106.53280839895014" fill="none" stroke="none" stroke-linecap="square" stroke-miterlimit="10" xmlns:xlink="http://www.w3.org/1999/xlink" xmlns="http://www.w3.org/2000/svg"><clipPath id="p.0"><path d="m0 0l115.84777 0l0 106.53281l-115.84777 0l0 -106.53281z" clip-rule="nonzero"/></clipPath><g clip-path="url(#p.0)"><path fill="#000000" fill-opacity="0.0" d="m0 0l115.84777 0l0 106.53281l-115.84777 0z" fill-rule="evenodd"/><path fill="#0b87da" d="m6.8687663 0l0 0c29.414597 0 53.259842 23.838194 53.259842 53.244095c0 29.4059 -23.845245 53.244095 -53.259842 53.244095l0 0c16.763924 -12.569229 26.629921 -32.295387 26.629921 -53.244095c0 -20.948711 -9.865997 -40.67487 -26.629921 -53.244095z" fill-rule="evenodd"/><path fill="#0b87da" d="m37.341206 0l0 0c29.4146 0 53.259846 23.838194 53.259846 53.244095c0 29.4059 -23.845245 53.244095 -53.259846 53.244095l0 0c16.763927 -12.569229 26.629925 -32.295387 26.629925 -53.244095c0 -20.948711 -9.865997 -40.67487 -26.629925 -53.244095z" fill-rule="evenodd"/><path fill="#0b87da" d="m2.6652243 53.244095l0 0c0 -7.6537094 6.2045584 -13.858269 13.858269 -13.858269l0 0c3.6754398 0 7.200346 1.4600639 9.799274 4.0589943c2.5989285 2.5989265 4.0589924 6.1238327 4.0589924 9.799274l0 0c0 7.6537094 -6.2045574 13.858269 -13.858267 13.858269l0 0c-7.6537104 0 -13.858269 -6.2045593 -13.858269 -13.858269z" fill-rule="evenodd"/><path fill="#0b87da" d="m93.362915 43.181072l20.188972 0l0 20.125984l-20.188972 0z" fill-rule="evenodd"/></g></svg>